<svg id="undraw_task_31wc" xmlns="http://www.w3.org/2000/svg" width="324.274" height="227.04" viewBox="0 0 324.274 227.04">
  <path id="Pfad_4617" data-name="Pfad 4617" d="M926.986,352.155c0,31.743-18.87,42.826-42.148,42.826s-42.149-11.083-42.149-42.826,42.149-72.124,42.149-72.124S926.986,320.413,926.986,352.155Z" transform="translate(-606.378 -218.459)" fill="#f2f2f2"/>
  <path id="Pfad_4618" data-name="Pfad 4618" d="M867.584,311.553l.432-26.566,17.965-32.865-17.9,28.7.194-11.945L880.659,245.1l-12.33,20.617h0l.349-21.484,13.258-18.93-13.2,15.552.218-39.393-1.37,52.149.112-2.151-13.48-20.633,13.264,24.763-1.256,23.993-.037-.637-15.54-21.713,15.492,23.963-.157,3-.028.045.013.246-3.187,60.874h4.257l.511-31.443L883,290.013Z" transform="translate(-590.66 -139.887)" fill="#3f3d56"/>
  <path id="Pfad_4619" data-name="Pfad 4619" d="M583.965,209.561c0,41.054-24.406,55.388-54.512,55.388s-54.512-14.334-54.512-55.388,54.512-93.28,54.512-93.28S583.965,168.508,583.965,209.561Z" transform="translate(-351.026 -104.756)" fill="#f2f2f2"/>
  <path id="Pfad_4620" data-name="Pfad 4620" d="M527.526,180.1l.558-34.358,23.234-42.506-23.147,37.116.251-15.449,16.013-30.753-15.947,26.664h0l.451-27.786,17.147-24.483L529.012,88.658l.282-50.949-1.772,67.447.146-2.782L510.234,75.689l17.154,32.026-1.624,31.031-.048-.824-20.1-28.082,20.037,30.992-.2,3.881-.036.058.016.318-4.121,78.73h5.506l.661-40.666,19.988-30.916Z" transform="translate(-351.084 -26.184)" fill="#3f3d56"/>
  <path id="Pfad_4621" data-name="Pfad 4621" d="M386.737,734.191c0,3.09-8.979,5.975-24.493,8.4-28.112,4.407-77.676,7.332-134.126,7.332-87.6,0-158.617-7.045-158.617-15.737,0-1.2,1.363-2.378,3.946-3.5a67.662,67.662,0,0,1,13.194-3.622c11.984-2.338,29.689-4.337,51.285-5.822,25.068-1.721,55.384-2.745,88.086-2.784q1.05,0,2.106,0,5.909,0,11.715.043,2.728.018,5.431.049c19.261.2,37.489.752,54.054,1.577.74.037,1.476.076,2.21.113.251.012.5.028.752.04.067,0,.134.006.2.012q4.882.257,9.551.547,1.531.092,3.035.193c9.74.633,18.732,1.369,26.819,2.2q2.072.211,4.065.431c10.233,1.122,18.848,2.4,25.487,3.781C381.247,729.484,386.737,731.773,386.737,734.191Z" transform="translate(-69.5 -522.888)" fill="#3f3d56"/>
  <ellipse id="Ellipse_109" data-name="Ellipse 109" cx="34.561" cy="8.008" rx="34.561" ry="8.008" transform="translate(195.568 202.312)" opacity="0.1"/>
  <path id="Pfad_4622" data-name="Pfad 4622" d="M1006.724,754.6c0,3.09-8.979,5.975-24.493,8.4-11.73-1.281-19.851-4.047-19.851-7.25,0-3.988,12.58-7.3,29.044-7.907C1001.235,749.893,1006.724,752.182,1006.724,754.6Z" transform="translate(-689.488 -543.296)" opacity="0.1"/>
  <path id="Pfad_4623" data-name="Pfad 4623" d="M250.428,736.281c0,5.277-37.616,9.554-84.015,9.554-45.964,0-83.307-4.2-84-9.4,8.921-3.895,32.409-7.238,64.478-9.444,6.266-.169,12.8-.259,19.526-.259C212.812,726.728,250.428,731,250.428,736.281Z" transform="translate(-78.463 -528.631)" opacity="0.1"/>
  <rect id="Rechteck_1597" data-name="Rechteck 1597" width="139.37" height="208.774" transform="translate(17.14)" fill="#3f3d56"/>
  <rect id="Rechteck_1598" data-name="Rechteck 1598" width="130.941" height="64.065" transform="translate(25.57 72.495)" fill="#2f2e41"/>
  <rect id="Rechteck_1599" data-name="Rechteck 1599" width="129.536" height="60.974" transform="translate(78.396 73.9)" fill="#3f3d56"/>
  <rect id="Rechteck_1600" data-name="Rechteck 1600" width="28.942" height="10.397" transform="translate(86.334 82.892)" fill="#3182ce"/>
  <rect id="Rechteck_1601" data-name="Rechteck 1601" width="106.495" height="2.81" transform="translate(93.499 101.156)" fill="#3182ce"/>
  <rect id="Rechteck_1602" data-name="Rechteck 1602" width="106.495" height="2.81" transform="translate(93.499 108.461)" fill="#3182ce"/>
  <rect id="Rechteck_1603" data-name="Rechteck 1603" width="106.495" height="2.81" transform="translate(93.499 115.767)" fill="#3182ce"/>
  <rect id="Rechteck_1604" data-name="Rechteck 1604" width="106.495" height="2.81" transform="translate(93.499 123.073)" fill="#3182ce"/>
  <rect id="Rechteck_1605" data-name="Rechteck 1605" width="28.942" height="10.397" transform="translate(26.413 23.603)" fill="#f2f2f2"/>
  <rect id="Rechteck_1606" data-name="Rechteck 1606" width="106.495" height="2.81" transform="translate(33.578 41.867)" fill="#f2f2f2"/>
  <rect id="Rechteck_1607" data-name="Rechteck 1607" width="106.495" height="2.81" transform="translate(33.578 49.173)" fill="#f2f2f2"/>
  <rect id="Rechteck_1608" data-name="Rechteck 1608" width="106.495" height="2.81" transform="translate(33.578 56.479)" fill="#f2f2f2"/>
  <rect id="Rechteck_1609" data-name="Rechteck 1609" width="106.495" height="2.81" transform="translate(33.578 63.784)" fill="#f2f2f2"/>
  <rect id="Rechteck_1610" data-name="Rechteck 1610" width="28.942" height="10.397" transform="translate(27.537 143.023)" fill="#f2f2f2"/>
  <rect id="Rechteck_1611" data-name="Rechteck 1611" width="106.495" height="2.81" transform="translate(34.702 161.287)" fill="#f2f2f2"/>
  <rect id="Rechteck_1612" data-name="Rechteck 1612" width="106.495" height="2.81" transform="translate(34.702 168.593)" fill="#f2f2f2"/>
  <rect id="Rechteck_1613" data-name="Rechteck 1613" width="106.495" height="2.81" transform="translate(34.702 175.899)" fill="#f2f2f2"/>
  <rect id="Rechteck_1614" data-name="Rechteck 1614" width="106.495" height="2.81" transform="translate(34.702 183.205)" fill="#f2f2f2"/>
  <path id="Pfad_4624" data-name="Pfad 4624" d="M792.563,198.878s5.777,7.4,5.055,12.638,11.916-7.222,11.916-7.222-4.333-9.027-1.986-13.361S792.563,198.878,792.563,198.878Z" transform="translate(-571.572 -155.95)" fill="#ffb9b9"/>
  <path id="Pfad_4625" data-name="Pfad 4625" d="M806.791,709.342s7.583,8.305,6.319,10.11-23.471,8.666-26,8.305-3.792-2.167-2.889-2.708,6.68-3.611,6.68-3.611l4.875-5.6s3.611-1.986,3.611-3.069S806.791,709.342,806.791,709.342Z" transform="translate(-565.578 -516.559)" fill="#2f2e41"/>
  <path id="Pfad_4626" data-name="Pfad 4626" d="M808.851,739.469s-2.889,4.694-3.43,4.875,2.708,6.68,2.708,6.68l7.583-2.347,4.152-3.43-.9-4.694Z" transform="translate(-580.458 -537.478)" fill="#ffb9b9"/>
  <path id="Pfad_4627" data-name="Pfad 4627" d="M767.6,446.464l-3.611,16.069s-12.458,27.985-3.792,32.86l18.958,36.29,10.111-4.514-16.972-37.193,7.764-42.79Z" transform="translate(-546.968 -334.025)" fill="#d0cde1"/>
  <path id="Pfad_4628" data-name="Pfad 4628" d="M767.6,446.464l-3.611,16.069s-12.458,27.985-3.792,32.86l18.958,36.29,10.111-4.514-16.972-37.193,7.764-42.79Z" transform="translate(-546.968 -334.025)" opacity="0.1"/>
  <path id="Pfad_4629" data-name="Pfad 4629" d="M791.278,452.274h-1.832a102.072,102.072,0,0,0,.929,16.61c1.264,9.208,4.514,30.332,4.514,30.332s-.361,3.972.722,5.236,1.264-.361,1.444,2.528,1.9,22.973,1.9,22.973,1.173,4.109-.09,5.011-3.792,5.778-1.986,6.5,14.263,1.625,14.8,1.083,0-34.485,0-34.485-.361-6.861-.722-7.222-1.986-5.236-1.444-6.319.181-4.333.181-4.875-1.625,0-.181-2.347,1.625-21.124,1.625-21.124,7.763-11.916,5.416-14.985Z" transform="translate(-569.384 -337.306)" fill="#d0cde1"/>
  <circle id="Ellipse_110" data-name="Ellipse 110" cx="11.916" cy="11.916" r="11.916" transform="translate(214.13 21.805)" fill="#ffb9b9"/>
  <path id="Pfad_4630" data-name="Pfad 4630" d="M802.817,230.255s-7.222,1.805-10.111,6.139l-2.528.542v2.528s-4.694,14.985-3.611,21.485,0,19.138-1.806,22.568-2.347,4.153-1.444,5.6,2.167,6.319,1.264,8.486,0,4.333,8.305,4.875,20.041.542,20.041-2.347-.722-11.013,0-13.18a10.278,10.278,0,0,0,.722-5.6c-.361-1.986.722-24.193.722-24.193S814.553,234.949,802.817,230.255Z" transform="translate(-564.855 -183.896)" fill="#2f2e41"/>
  <path id="Pfad_4631" data-name="Pfad 4631" d="M752.946,412.792l-9.93,14.8s-10.472,9.569-6.68,13.9,13.722-12.638,13.722-12.638l10.833-12.277Z" transform="translate(-531.955 -310.644)" fill="#ffb9b9"/>
  <path id="Pfad_4632" data-name="Pfad 4632" d="M769.544,753.041s-.361-2.347-1.625-2.347-9.75,5.777-9.75,5.777-11.194,1.264-6.861,3.611,30.873,2.708,31.054,1.805.542-9.805-.722-9.777-11.375,2.014-11.375,2.014Z" transform="translate(-542.234 -545.272)" fill="#2f2e41"/>
  <path id="Pfad_4633" data-name="Pfad 4633" d="M782.664,139.156a2.988,2.988,0,0,1-1.362.308c-.487.028-1.068,0-1.328-.416a1.9,1.9,0,0,1-.166-.867,2.857,2.857,0,0,0-3.338-2.433,4.112,4.112,0,0,0,.532,1.694,3.624,3.624,0,0,1-3.185-.424l-.183,2.432a1.984,1.984,0,0,1-2.042-.069,1.131,1.131,0,0,1,.029-1.81c-.789-.165-1.754-.518-1.812-1.322-.053-.734.726-1.271.869-1.992.117-.588-.206-1.228.023-1.783.3-.729,1.389-.916,1.607-1.673a6.564,6.564,0,0,0-.011-1.2c.1-1.046,1.415-1.48,2.464-1.421s2.194.338,3.086-.219a8.95,8.95,0,0,0,1.114-1.042,3.308,3.308,0,0,1,3.841-.334,6.525,6.525,0,0,0,1.261.786c.963.326,1.968-.291,2.975-.434a2.472,2.472,0,0,1,2.072.6,1.7,1.7,0,0,1,.309,2.043,3.321,3.321,0,0,1,1.773.025,1.145,1.145,0,0,1,.725,1.429,1.844,1.844,0,0,0-.225.459c-.052.315.251.584.557.674s.638.073.938.183c1.238.453.941,2.431,1.915,3.319a7.765,7.765,0,0,0,1.056.646,2.569,2.569,0,0,1,.906,3.1,2.845,2.845,0,0,0-.483,1.318c.055.663.766,1.026,1.264,1.467a2.942,2.942,0,0,1,.685,3.377c-.458.956-1.451,1.681-1.552,2.736-.044.459.094.917.086,1.378a2.838,2.838,0,0,1-1.22,2.143,6.345,6.345,0,0,1-2.342.975c-.394.094-.863.242-.958.635-.113.466.407.891.354,1.368a.792.792,0,0,1-.318.515,1.619,1.619,0,0,1-2.25-.7,4.691,4.691,0,0,1-.309-2.625l.243-3.242c.076-1.009.068-2.207-.754-2.8-.909-.651-2.233-.124-3.261-.564a2.988,2.988,0,0,1-1.412-2.965,17.358,17.358,0,0,0,.185-3.48c-.238-1.425-1.505-2.382-2.785-1.459C783.358,137.343,783.553,138.634,782.664,139.156Z" transform="translate(-555.77 -111.592)" fill="#2f2e41"/>
  <path id="Pfad_4634" data-name="Pfad 4634" d="M806.538,258.39s-7.222,2.889-7.222,9.027.361,14.263-.9,16.972-2.347,3.611-1.625,5.778,1.986,1.805,0,3.43-1.805-1.083-1.986,1.625,1.806,3.069,0,4.333-6.5,6.319-4.514,7.944,7.222,6.861,9.027,4.875,2.708-7.041,5.236-6.68,2.889.542,2.528-1.264-1.986-1.805.181-2.347,3.069.722,2.347-1.083-1.264-2.528.181-4.514,2.167-2.528,1.986-4.514,3.972-19.86,3.972-19.86S817.01,256.945,806.538,258.39Z" transform="translate(-569.659 -203.364)" opacity="0.1"/>
  <path id="Pfad_4635" data-name="Pfad 4635" d="M800.04,257.209s-7.222,2.889-7.222,9.027.361,14.263-.9,16.972-2.347,3.611-1.625,5.777,1.986,1.805,0,3.43-1.805-1.083-1.986,1.625,1.805,3.069,0,4.333-6.5,6.319-4.514,7.944,7.222,6.861,9.027,4.875,2.708-7.041,5.236-6.68,2.889.542,2.528-1.264-1.986-1.805.181-2.347,3.069.722,2.347-1.083-1.264-2.528.181-4.514,2.166-2.528,1.986-4.514,3.972-19.86,3.972-19.86S810.512,255.764,800.04,257.209Z" transform="translate(-565.147 -202.544)" opacity="0.1"/>
  <path id="Pfad_4636" data-name="Pfad 4636" d="M802.994,255.437s-7.222,2.889-7.222,9.027.361,14.263-.9,16.971-2.347,3.611-1.625,5.778,1.986,1.805,0,3.43-1.805-1.083-1.986,1.625,1.806,3.069,0,4.333-6.5,6.319-4.514,7.944,7.222,6.861,9.027,4.875,2.708-7.041,5.236-6.68,2.889.542,2.528-1.264-1.986-1.805.181-2.347,3.069.722,2.347-1.083-1.264-2.528.181-4.514,2.167-2.528,1.986-4.514,3.972-19.86,3.972-19.86S813.466,253.992,802.994,255.437Z" transform="translate(-567.198 -201.314)" fill="#2f2e41"/>
  <path id="Pfad_4637" data-name="Pfad 4637" d="M964.5,663.787c0,15.8,9.91,28.578,22.156,28.578" transform="translate(-690.96 -484.927)" fill="#2f2e41"/>
  <path id="Pfad_4638" data-name="Pfad 4638" d="M1036.99,691.636c0-15.974,11.059-28.9,24.725-28.9" transform="translate(-741.294 -484.197)" fill="#3182ce"/>
  <path id="Pfad_4639" data-name="Pfad 4639" d="M990.766,668.472c0,15,6.319,27.147,14.129,27.147" transform="translate(-709.198 -488.18)" fill="#3182ce"/>
  <path id="Pfad_4640" data-name="Pfad 4640" d="M1036.99,673.4c0-20.411,12.782-36.927,28.578-36.927" transform="translate(-741.294 -465.959)" fill="#2f2e41"/>
  <path id="Pfad_4641" data-name="Pfad 4641" d="M1021.74,754.1s3.142-.1,4.089-.771,4.833-1.479,5.068-.4,4.722,5.379,1.175,5.407-8.243-.553-9.188-1.128S1021.74,754.1,1021.74,754.1Z" transform="translate(-730.705 -546.455)" fill="#a8a8a8"/>
  <path id="Pfad_4642" data-name="Pfad 4642" d="M1032.143,761.805c-3.548.029-8.243-.552-9.188-1.128-.72-.438-1.007-2.012-1.1-2.737l-.1,0s.2,2.534,1.144,3.11,5.641,1.157,9.188,1.128c1.024-.008,1.378-.372,1.358-.912C1033.3,761.6,1032.9,761.8,1032.143,761.805Z" transform="translate(-730.711 -550.303)" opacity="0.2"/>
</svg>
