<svg xmlns="http://www.w3.org/2000/svg" width="502.019" height="375.965" viewBox="0 0 502.019 375.965">
  <g id="undraw_personal_file_222m" transform="translate(0 44.624)">
    <ellipse id="Ellipse_113" data-name="Ellipse 113" cx="106.548" cy="5.107" rx="106.548" ry="5.107" transform="translate(288.922 321.126)" fill="#d0cde1"/>
    <g id="Gruppe_1265" data-name="Gruppe 1265" transform="translate(386.341 -44.624)">
      <path id="Pfad_4644" data-name="Pfad 4644" d="M910.581,480.435l12.284,47.774s.455,33.669,3.185,46.864,11.829,45.044,11.829,45.044l10.92,1.82-2.276-44.589s0-26.844-2.275-32.759-6.825-66.428-6.825-66.428Z" transform="translate(-897.013 -269.776)" fill="#ffb8b8"/>
      <path id="Pfad_4645" data-name="Pfad 4645" d="M910.581,480.435l12.284,47.774s.455,33.669,3.185,46.864,11.829,45.044,11.829,45.044l10.92,1.82-2.276-44.589s0-26.844-2.275-32.759-6.825-66.428-6.825-66.428Z" transform="translate(-897.013 -269.776)" opacity="0.1"/>
      <path id="Pfad_4646" data-name="Pfad 4646" d="M947.329,199.51h0c-15.166,0-27.46,13.644-27.46,30.475v21.384h6.576l3.808-7.923-.952,7.923h42.272l3.461-7.2-.865,7.2h4.759V234.579C978.927,215.211,964.781,199.51,947.329,199.51Z" transform="translate(-899.703 -189.089)" fill="#2f2e41"/>
      <path id="Pfad_4647" data-name="Pfad 4647" d="M893.449,470.795s-5.459,23.2,1.82,25.479,5.46-25.479,5.46-25.479Z" transform="translate(-891.483 -267.644)" fill="#ffb8b8"/>
      <path id="Pfad_4648" data-name="Pfad 4648" d="M843.244,120.081l-3.641,4.095.91,78.713-8.19,37.309,18.2,1.82,9.1-75.073-2.729-38.219Z" transform="translate(-832.179 -34.771)" fill="#3f3d56"/>
      <path id="Pfad_4649" data-name="Pfad 4649" d="M843.244,120.081l-3.641,4.095.91,78.713-8.19,37.309,18.2,1.82,9.1-75.073-2.729-38.219Z" transform="translate(-832.179 -34.771)" opacity="0.1"/>
      <ellipse id="Ellipse_114" data-name="Ellipse 114" cx="19.549" cy="19.549" rx="19.549" ry="19.549" transform="translate(25.647 20.194)" fill="#ffb8b8"/>
      <path id="Pfad_4650" data-name="Pfad 4650" d="M939.325,255.381s5.734,29.715,3.128,32.843,27.629-5.734,27.629-5.734-9.905-20.331-4.692-31.8Z" transform="translate(-905.337 -203.909)" fill="#ffb8b8"/>
      <path id="Pfad_4651" data-name="Pfad 4651" d="M1005.84,440.7s5.46,23.2-1.82,25.479-5.46-25.479-5.46-25.479Z" transform="translate(-922.431 -258.928)" fill="#ffb8b8"/>
      <path id="Pfad_4652" data-name="Pfad 4652" d="M938.442,473.677s-7.734,46.409-7.28,53.234,0,7.735,0,7.735-7.735,20.019-10.01,31.394a245.619,245.619,0,0,1-7.28,25.934s-5.915,13.194-.91,13.194a56.906,56.906,0,0,0,11.83-1.819,23.239,23.239,0,0,1,5-14.485c5.46-6.9,21.839-39.2,21.839-43.3s2.73-15.925,2.73-15.925l10.465-50.5Z" transform="translate(-897.121 -268.478)" fill="#ffb8b8"/>
      <path id="Pfad_4653" data-name="Pfad 4653" d="M903.3,429.435s-7.735,39.128-.91,40.039,16.38-5.915,28.664,1.82,32.759,5.915,32.759,5.915,14.1-35.944,1.365-44.589S903.3,429.435,903.3,429.435Z" transform="translate(-893.826 -255.175)" fill="#2f2e41"/>
      <path id="Pfad_4654" data-name="Pfad 4654" d="M912.088,646.029a12.123,12.123,0,0,1,6.37-.91,8.309,8.309,0,0,0,5.915-1.365s-3.64,13.194-3.185,18.2-1.365,26.389-10.92,24.114-12.284-9.1-8.645-20.93,2.73-25.479,2.73-25.479,6.64-6.859,7.87-5.932S912.088,646.029,912.088,646.029Z" transform="translate(-893.971 -314.798)" fill="#2f2e41"/>
      <path id="Pfad_4655" data-name="Pfad 4655" d="M949.959,672.845s-4.55-10.01-10.01-.91-5.915,11.374-5.915,11.374-15.469,14.1-4.55,15.47,19.564-.455,19.564-2.73,5.46-1.82,5.915-3.64-.91-18.654-.91-18.654Z" transform="translate(-901.358 -324.781)" fill="#2f2e41"/>
      <path id="Pfad_4656" data-name="Pfad 4656" d="M952.656,277.77h0s-19.109,3.64-21.384,3.185a11.3,11.3,0,0,0-1.552-.164,23,23,0,0,0-12.7,3.15c-6.336,3.68-15.778,10.23-15.778,16.579,0,9.555,12.285,25.934,12.285,25.934s-11.375,39.129-10.465,42.769-6.825,15.924-1.82,20.019,52.778,0,61.423,4.095,4.55-54.6,4.55-54.6,23.2-53.233,11.375-58.238c-3.828-1.619-7.132-2.858-9.85-3.792A20.821,20.821,0,0,0,952.656,277.77Z" transform="translate(-893.817 -211.114)" fill="#3f3d56"/>
      <path id="Pfad_4657" data-name="Pfad 4657" d="M997.8,283.148l10.44,1.725s4.575,4.644,4.575,6.92-.91,100.552-2.275,103.737-16.379,1.82-16.379,1.82l2.729-55.963Z" transform="translate(-921.215 -213.308)" fill="#3f3d56"/>
      <path id="Pfad_4658" data-name="Pfad 4658" d="M956.987,208.962a14.4,14.4,0,0,0-11.364-5.8h-.539c-10.4,0-18.821,9.406-18.821,21.009h3.483l.563-4.281.824,4.281h20.658l1.73-3.622-.433,3.622h4.064Q960,238.3,948.979,252.426H955.9l3.461-7.244-.865,7.244h13.2l2.6-16.662C974.29,223.285,967.04,212.7,956.987,208.962Z" transform="translate(-901.555 -190.147)" fill="#2f2e41"/>
      <ellipse id="Ellipse_115" data-name="Ellipse 115" cx="10.285" cy="10.285" rx="10.285" ry="10.285" transform="translate(48.941 0)" fill="#2f2e41"/>
    </g>
    <rect id="Rechteck_1621" data-name="Rechteck 1621" width="283.228" height="181.212" transform="translate(45.677 43.729)" fill="#3f3d56"/>
    <rect id="Rechteck_1622" data-name="Rechteck 1622" width="127.52" height="148.326" transform="translate(193.332 76.448)" fill="#3182ce"/>
    <rect id="Rechteck_1623" data-name="Rechteck 1623" width="77.341" height="3.119" transform="translate(236.463 90.249)" fill="#fff"/>
    <rect id="Rechteck_1624" data-name="Rechteck 1624" width="77.341" height="3.119" transform="translate(236.463 97.111)" fill="#fff"/>
    <rect id="Rechteck_1625" data-name="Rechteck 1625" width="26.196" height="3.119" transform="translate(236.463 103.971)" fill="#fff"/>
    <rect id="Rechteck_1626" data-name="Rechteck 1626" width="77.341" height="3.119" transform="translate(77.646 157.317)" fill="#fff"/>
    <rect id="Rechteck_1627" data-name="Rechteck 1627" width="77.341" height="3.119" transform="translate(77.646 164.178)" fill="#fff"/>
    <rect id="Rechteck_1628" data-name="Rechteck 1628" width="26.196" height="3.119" transform="translate(77.646 171.039)" fill="#fff"/>
    <rect id="Rechteck_1629" data-name="Rechteck 1629" width="77.341" height="3.119" transform="translate(218.342 128.506)" fill="#fff"/>
    <rect id="Rechteck_1630" data-name="Rechteck 1630" width="77.341" height="3.119" transform="translate(218.342 135.366)" fill="#fff"/>
    <rect id="Rechteck_1631" data-name="Rechteck 1631" width="77.341" height="3.119" transform="translate(218.342 142.078)" fill="#fff"/>
    <rect id="Rechteck_1632" data-name="Rechteck 1632" width="77.341" height="3.119" transform="translate(218.342 148.79)" fill="#fff"/>
    <rect id="Rechteck_1633" data-name="Rechteck 1633" width="77.341" height="3.119" transform="translate(218.342 155.501)" fill="#fff"/>
    <rect id="Rechteck_1634" data-name="Rechteck 1634" width="77.341" height="3.119" transform="translate(218.342 162.213)" fill="#fff"/>
    <rect id="Rechteck_1635" data-name="Rechteck 1635" width="77.341" height="3.119" transform="translate(218.342 168.924)" fill="#fff"/>
    <rect id="Rechteck_1636" data-name="Rechteck 1636" width="77.341" height="3.119" transform="translate(218.342 175.636)" fill="#fff"/>
    <rect id="Rechteck_1637" data-name="Rechteck 1637" width="77.341" height="3.119" transform="translate(218.342 182.347)" fill="#fff"/>
    <rect id="Rechteck_1638" data-name="Rechteck 1638" width="77.341" height="3.119" transform="translate(218.342 189.059)" fill="#fff"/>
    <rect id="Rechteck_1639" data-name="Rechteck 1639" width="77.341" height="3.119" transform="translate(218.342 195.77)" fill="#fff"/>
    <path id="Pfad_4659" data-name="Pfad 4659" d="M305.562,308.761a28.111,28.111,0,0,1-10.46,21.91,27.779,27.779,0,0,1-3.856,2.628,27.239,27.239,0,0,1-2.524,1.265,27.9,27.9,0,0,1-9.024,2.285q-1.148.1-2.319.094a27.845,27.845,0,0,1-4.611-.379c-.537-.084-1.067-.188-1.591-.309a27.1,27.1,0,0,1-2.708-.752,28.118,28.118,0,0,1-9.89-5.752,25.647,25.647,0,0,1-2.1-2.087,28.179,28.179,0,1,1,49.078-18.9Z" transform="translate(-161.063 -201.031)" fill="#3182ce"/>
    <path id="Pfad_4660" data-name="Pfad 4660" d="M623.761,374.369A46.981,46.981,0,0,0,576.78,421.35h0a13.759,13.759,0,0,1-13.759,13.759H540.2a40.94,40.94,0,0,0-40.94,40.94h124.5V374.369Z" transform="translate(-295.023 -251.275)" fill="#3f3d56"/>
    <rect id="Rechteck_1640" data-name="Rechteck 1640" width="6.04" height="181.212" transform="translate(184.103 43.729)" fill="#2f2e41"/>
    <path id="Pfad_4661" data-name="Pfad 4661" d="M118.269,657.228c.057,5.832-3.39,7.9-7.666,7.943q-.149,0-.3,0-.3,0-.589-.021c-3.862-.236-6.882-2.347-6.935-7.771-.055-5.613,7.049-12.765,7.582-13.294h0l.031-.03S118.212,651.4,118.269,657.228Z" transform="translate(-82.624 -395.749)" fill="#d0cde1"/>
    <ellipse id="Ellipse_116" data-name="Ellipse 116" cx="27.857" cy="1.966" rx="27.857" ry="1.966" transform="translate(0 266.635)" fill="#d0cde1"/>
    <g id="Gruppe_1262" data-name="Gruppe 1262" transform="translate(299.68 199.106)">
      <circle id="Ellipse_117" data-name="Ellipse 117" cx="20.975" cy="20.975" r="20.975" transform="translate(0)" fill="#69f0ae"/>
      <path id="Pfad_4662" data-name="Pfad 4662" d="M381.918,485.011l7.865,7.21,11.143-16.386,3.932,3.277-15.075,19.664-11.143-12.454Z" transform="translate(-369.738 -467.204)" fill="#fff"/>
    </g>
  </g>
</svg>
