<svg xmlns="http://www.w3.org/2000/svg" width="384.339" height="253.024" viewBox="0 0 384.339 253.024">
  <g id="undraw_Profile_data_re_v81r" transform="translate(-0.011 0)">
    <path id="Pfad_5347" data-name="Pfad 5347" d="M364.845,240.533q-.664,3.493-1.594,6.916c-.067.265-.142.526-.217.791h-8.616a2.771,2.771,0,0,0-2.768,2.768v24.563c-.261.486-.526.969-.791,1.451-1.368,2.491-2.792,4.955-4.247,7.386a280.8,280.8,0,0,1-96.359,96.3l2.341-5.283-2.578-.178c-18.683-1.277-37.43-2.693-55.674-6.892-19.087-4.393-37.758-12.013-52.717-24.646s-25.931-30.684-27.454-50.21a57.288,57.288,0,0,1,2-19.933c3.507-12.463,11.17-23.677,22.226-30.312,17.367-10.419,40.02-8.3,58.328.372s33.2,23.005,47.75,37.1a184.43,184.43,0,0,0-59.672-62.286c-8.13-5.2-16.758-9.838-23.669-16.58s-12-16.184-10.783-25.757c1.388-10.858,10.281-19.1,19.189-25.453,3.559-2.539,7.232-4.947,11.02-7.161,10.688-6.263,22.25-10.989,34.46-12.74,16.54-2.376,34.405,1.23,47.086,12.112C276.4,155.124,282.259,174.9,281.7,193.815c8.8-12.8,22.376-22.59,37.707-23.005,15.915-.427,31.044,9.628,39.016,23.412S367.823,224.895,364.845,240.533Z" transform="translate(-113.998 -130.052)" fill="#e6e6e6"/>
    <path id="Pfad_5348" data-name="Pfad 5348" d="M492.711,364.722c9.322-.821,17.933-1.78,26.966-4.336,8.756-2.478,17.181-6.625,23.414-13.4,6.7-7.284,10.323-16.744,12.876-26.161,1.424-5.25,2.593-10.574,3.7-15.9q1.8-8.667,3.192-17.411,2.778-17.405,3.967-35.015.144-2.138.263-4.277c.05-.88-1.319-.877-1.368,0q-.977,17.359-3.513,34.582c-1.669,11.281-3.8,22.513-6.513,33.592-2.3,9.386-5.267,18.918-11.153,26.731-5.52,7.327-13.492,12.115-22.1,14.977-8.76,2.913-18,4.076-27.149,4.941-1.123.106-1.455.207-2.579.306-.87.077-.878,1.446,0,1.368Z" transform="translate(-342.559 -201.099)" fill="#fff"/>
    <path id="Pfad_5349" data-name="Pfad 5349" d="M120.482,493.467a148.281,148.281,0,0,1,34.678,6.111,149.868,149.868,0,0,1,32.3,14.058,146.206,146.206,0,0,1,27.2,20.477A149.81,149.81,0,0,1,235.9,559.443a148.32,148.32,0,0,1,15.2,29.471q.722,1.9,1.392,3.824c.288.826,1.611.471,1.319-.364a149.73,149.73,0,0,0-14.523-30.2,151.668,151.668,0,0,0-20.839-26.252,147.87,147.87,0,0,0-26.6-21.231A151.016,151.016,0,0,0,124.794,492.4q-2.153-.18-4.311-.3c-.88-.048-.877,1.32,0,1.368Z" transform="translate(-117.513 -348.939)" fill="#fff"/>
    <path id="Pfad_5350" data-name="Pfad 5350" d="M282.538,166.024a80.586,80.586,0,0,1,21.155,10.338A99.347,99.347,0,0,1,321.753,192.4a132.956,132.956,0,0,1,14.955,20.609,175.825,175.825,0,0,1,11.89,24.174,218.747,218.747,0,0,1,8.659,26.293,247.2,247.2,0,0,1,7.92,55.1,218.83,218.83,0,0,1-.783,26.5,168.806,168.806,0,0,1-3.979,24.4,115.284,115.284,0,0,1-7.179,21.1q-1.066,2.31-2.263,4.555c-.414.777.767,1.469,1.181.691a105.46,105.46,0,0,0,8.08-20.336,157.484,157.484,0,0,0,4.818-23.922,208.133,208.133,0,0,0,1.592-26.449,242.644,242.644,0,0,0-1.656-27.793,250.333,250.333,0,0,0-4.82-27.771A226.63,226.63,0,0,0,352.11,242.5,188.19,188.19,0,0,0,340.9,217.614a144.274,144.274,0,0,0-14.37-21.689,106.993,106.993,0,0,0-17.555-17.4,84.89,84.89,0,0,0-20.587-11.875q-2.707-1.077-5.489-1.949c-.842-.265-1.2,1.056-.364,1.319Z" transform="translate(-215.6 -150.981)" fill="#fff"/>
    <ellipse id="Ellipse_354" data-name="Ellipse 354" cx="97.865" cy="3.954" rx="97.865" ry="3.954" transform="translate(50.226 245.116)" fill="#e6e6e6"/>
    <path id="Pfad_5351" data-name="Pfad 5351" d="M668.012,441.841a4.179,4.179,0,0,0-.095.648l-16.986,9.8-4.129-2.377-4.4,5.762,8.833,6.3,19.378-15.288a4.15,4.15,0,1,0-2.6-4.84Z" transform="translate(-433.456 -316.619)" fill="#ffb8b8"/>
    <path id="Pfad_5352" data-name="Pfad 5352" d="M605.957,447.326l13.375,9.532,5.982-7.5-13-10.432a5.268,5.268,0,0,0-7.587,1.051h0a5.268,5.268,0,0,0,1.232,7.348Z" transform="translate(-410.086 -316.092)" fill="#3182ce"/>
    <path id="Pfad_5353" data-name="Pfad 5353" d="M425.519,579.3l4.69,1.229,6.971-17.5-6.921-1.814Z" transform="translate(-257.256 -339.301)" fill="#ffb8b8"/>
    <path id="Pfad_5354" data-name="Pfad 5354" d="M0,0H15.236V5.886H5.887A5.886,5.886,0,0,1,0,0H0Z" transform="matrix(-0.967, -0.253, 0.253, -0.967, 180.856, 247.953)" fill="#2f2e41"/>
    <path id="Pfad_5355" data-name="Pfad 5355" d="M525.915,585.333l4.772-.852-1.017-18.812-7.043,1.258Z" transform="translate(-315.966 -341.995)" fill="#ffb8b8"/>
    <path id="Pfad_5356" data-name="Pfad 5356" d="M0,0H15.236V5.887H5.887A5.887,5.887,0,0,1,0,0H0Z" transform="translate(224.714 245.274) rotate(169.872)" fill="#2f2e41"/>
    <path id="Pfad_5357" data-name="Pfad 5357" d="M608.443,393.74a4.554,4.554,0,0,1,2.707,2.873,20.041,20.041,0,0,1,1.069,4.513c.451,2.869.885,5.976-.049,8.633-1.094,3.115-4.01,4.746-6.54,3.98s-4.541-3.644-5.228-6.957a16.847,16.847,0,0,1,1.156-9.919,8.067,8.067,0,0,1,3.025-3.883,2.985,2.985,0,0,1,3.981.83" transform="translate(-407.891 -288.754)" fill="#2f2e41"/>
    <path id="Pfad_5358" data-name="Pfad 5358" d="M577.241,526.948l9.085,81.374-7.5,2.849L564.984,556.6,545.716,606.5l-8.214.456s11.269-77.632,19.621-79.4Z" transform="translate(-370.036 -370.01)" fill="#2f2e41"/>
    <circle id="Ellipse_355" data-name="Ellipse 355" cx="9.712" cy="9.712" r="9.712" transform="translate(189.863 95.947)" fill="#ffb8b8"/>
    <path id="Pfad_5359" data-name="Pfad 5359" d="M601.685,430.035l-10.495-1.369s-6.845,8.213-6.388,22.359-1.141,18.48-1.141,18.48l21.882.4C602.381,465.551,615.612,440.57,601.685,430.035Z" transform="translate(-397.943 -310.59)" fill="#3182ce"/>
    <path id="Pfad_5360" data-name="Pfad 5360" d="M607.672,504.669a4.141,4.141,0,0,0-.653.056l-13.426-14.293,1.369-4.563-6.616-2.966-4.107,10.039,19.317,15.366a4.15,4.15,0,1,0,4.117-3.639Z" transform="translate(-398.292 -343.381)" fill="#ffb8b8"/>
    <path id="Pfad_5361" data-name="Pfad 5361" d="M596.8,441.183l-6.219,15.2,8.67,4.107,7.18-15.044a5.269,5.269,0,0,0-2.76-7.146h0A5.269,5.269,0,0,0,596.8,441.183Z" transform="translate(-402.129 -316.178)" fill="#3182ce"/>
    <path id="Pfad_5362" data-name="Pfad 5362" d="M588.532,387.8c1.522-.878,1.684-3,1.477-4.74s-.552-3.689.473-5.116c1.224-1.7,3.683-1.736,5.779-1.792s4.648-.669,5.191-2.694a3.609,3.609,0,0,0-1.511-3.614,10.6,10.6,0,0,0-3.82-1.564c-3-.79-6.092-1.586-9.16-1.152a11.679,11.679,0,0,0-9.95,13.041c.5,3.9,1.217,5.6.744,7.314-.881,3.2-4.678,5.254-4.754,8.571-.059,2.595,2.233,4.6,4.469,5.914a15,15,0,0,0,5.732,2.176,7.308,7.308,0,0,0,5.767-1.609c1.964-1.787,2.45-4.772,1.887-7.367a22.542,22.542,0,0,0-3.437-7.137" transform="translate(-391.498 -273.308)" fill="#2f2e41"/>
    <path id="Pfad_5363" data-name="Pfad 5363" d="M856.931,426.948H716.559A3.564,3.564,0,0,0,713,430.507v90.154a3.564,3.564,0,0,0,3.559,3.559H856.931a3.564,3.564,0,0,0,3.559-3.559V430.507A3.564,3.564,0,0,0,856.931,426.948Zm2.768,93.713a2.771,2.771,0,0,1-2.768,2.768H716.559a2.771,2.771,0,0,1-2.768-2.768V430.507a2.771,2.771,0,0,1,2.768-2.768H856.931a2.771,2.771,0,0,1,2.768,2.768Z" transform="translate(-476.139 -309.551)" fill="#3f3d56"/>
    <path id="Pfad_5364" data-name="Pfad 5364" d="M758.781,496.308H736.638a3.365,3.365,0,0,1-3.361-3.361V470.8a3.365,3.365,0,0,1,3.361-3.361h22.143a3.365,3.365,0,0,1,3.361,3.361v22.143A3.365,3.365,0,0,1,758.781,496.308Z" transform="translate(-488.398 -334.034)" fill="#3182ce"/>
    <path id="Pfad_5365" data-name="Pfad 5365" d="M862.324,592.093H736.583a2.57,2.57,0,1,1,0-5.14H862.325a2.57,2.57,0,1,1,0,5.141Z" transform="translate(-488.843 -406.288)" fill="#ccc"/>
    <path id="Pfad_5366" data-name="Pfad 5366" d="M862.542,560.593H736.8a2.57,2.57,0,1,1,0-5.14H862.542a2.57,2.57,0,1,1,0,5.14Z" transform="translate(-488.975 -387.243)" fill="#ccc"/>
    <path id="Pfad_5367" data-name="Pfad 5367" d="M869.382,517.583H850.8a2.57,2.57,0,1,1,0-5.14h18.584a2.57,2.57,0,1,1,0,5.14Z" transform="translate(-557.896 -361.24)" fill="#ccc"/>
    <path id="Pfad_5368" data-name="Pfad 5368" d="M931.465,485.593H850.8a2.57,2.57,0,0,1,0-5.14h80.665a2.57,2.57,0,0,1,0,5.14Z" transform="translate(-557.897 -341.899)" fill="#ccc"/>
    <path id="Pfad_5369" data-name="Pfad 5369" d="M797.166,624.093H736.583a2.57,2.57,0,1,1,0-5.14h60.583a2.57,2.57,0,0,1,0,5.14Z" transform="translate(-488.843 -425.635)" fill="#ccc"/>
  </g>
</svg>
